<svg width="110" height="37" viewBox="0 0 110 37" fill="none" xmlns="http://www.w3.org/2000/svg">
<path d="M5.04 5.84L7.04 11.32L7.08 16.64C7.05333 16.96 7.04 17.1733 7.04 17.28C7.06667 17.36 7.16 17.4267 7.32 17.48C7.48 17.56 7.69333 17.6 7.96 17.6C8.22667 17.5733 8.45333 17.48 8.64 17.32L11.44 15.76L17.44 14.56L21.84 10.48L22.08 8.52L21.64 5.08L21.92 2.8L23.12 0.919999L26.56 1.16L26.68 3.88L26.56 5.28L27.28 6.04L29.36 5.4L30.32 5.6L32.36 5.16L34.12 6.04L34.64 8.64L33.16 9.56L30.6 9.32L27.08 9.6C26.52 9.25333 26.4133 9.46666 26.76 10.24L27.08 10.48L27.28 10.36L27.08 11.4C26.68 11.88 26.56 12.1867 26.72 12.32C26.88 12.4267 27.08 12.4 27.32 12.24L31.24 11.52L35.36 12.32L35.64 15.48L30.12 15.68L29.28 16.24L27.28 16.36L27.44 20.24L23.4 21.04L22.32 20.52L21.92 17.44L22 14.48C22.2133 14.2933 22.3467 14.04 22.4 13.72C22.4267 13.48 22.4267 13.2267 22.4 12.96L18.8 16.84L15.2 19.72L5.56 22.76L1.56 22.12L0.6 14.56L0.36 10.12L1.04 9.04L1.2 6.24L5.04 5.84ZM22.2 22.08L22.12 22.36C22.0667 22.5733 22.0667 22.7733 22.12 22.96C22.12 23.2 22.1867 23.4267 22.32 23.64C22.4533 23.8533 22.68 24 23 24.08C23.32 23.92 23.76 23.8 24.32 23.72C24.88 23.64 25.44 23.6 26 23.6C26.56 23.6 27.0667 23.6667 27.52 23.8C28 23.9067 28.3333 24.04 28.52 24.2L29.64 25.88C29.6933 26.28 29.6933 26.72 29.64 27.2C29.5867 27.6533 29.52 28.08 29.44 28.48C29.3867 28.72 29.3467 28.9467 29.32 29.16C29.2933 29.3733 29.2667 29.56 29.24 29.72C29.24 29.9067 29.2267 30.0667 29.2 30.2C29.2 30.3067 29.2267 30.4 29.28 30.48C29.2267 30.5333 29.16 30.5867 29.08 30.64C29.0267 30.6933 28.9733 30.7467 28.92 30.8L28.68 31.04C28.6 31.12 28.52 31.2 28.44 31.28C28.3867 31.3867 28.32 31.48 28.24 31.56C28.0533 31.8 27.8133 32.04 27.52 32.28C27.2533 32.5467 26.8533 32.84 26.32 33.16L18.4 35.32C18.16 35.32 17.9333 35.2933 17.72 35.24C17.5333 35.2133 17.32 35.16 17.08 35.08C16.6 34.9733 16.04 34.8133 15.4 34.6C15.0533 34.52 14.7467 34.4 14.48 34.24C14.24 34.08 14.0133 33.9067 13.8 33.72C13.64 33.6133 13.52 33.52 13.44 33.44L13.16 33.16C13.08 33.1067 12.9733 33.0133 12.84 32.88L12.56 32.6C12.32 32.44 12.1333 32.2933 12 32.16C11.8667 32.0533 11.8 31.92 11.8 31.76C11.7467 31.7067 11.72 31.64 11.72 31.56V30.92C11.72 30.7333 11.7333 30.5733 11.76 30.44C11.76 29.8 11.8267 29.2933 11.96 28.92C12.12 28.5467 12.44 28.12 12.92 27.64C13.24 27.88 13.5733 27.9067 13.92 27.72C14.2667 27.5333 14.48 27.28 14.56 26.96L14.84 25.84C15.0533 25.68 15.2 25.5067 15.28 25.32C15.3867 25.1067 15.4533 24.92 15.48 24.76C15.48 24.68 15.48 24.6133 15.48 24.56C15.5067 24.48 15.52 24.4 15.52 24.32C15.5733 24.1867 15.6667 24.0667 15.8 23.96C16.1467 23.6933 16.5867 23.24 17.12 22.6C17.4933 22.3867 17.8 22.2267 18.04 22.12C18.3067 22.0133 18.5333 21.92 18.72 21.84C18.8 21.8133 18.8933 21.8 19 21.8H20.04L22.2 22.08ZM22.48 26.24C22.48 26.16 22.5067 26.12 22.56 26.12C22.6133 26.0933 22.6 26.08 22.52 26.08C22.44 26.16 22.2667 26.24 22 26.32C21.7333 26.3733 21.32 26.44 20.76 26.52L17.84 29.68C17.76 29.84 17.7733 30.0533 17.88 30.32C18.0133 30.56 18.2 30.76 18.44 30.92C18.4933 31.16 18.6533 31.3467 18.92 31.48C19.1867 31.64 19.4933 31.72 19.84 31.72L23.84 30.6C24 30.52 24.1867 30.36 24.4 30.12C24.6133 29.88 24.76 29.64 24.84 29.4C24.84 29.24 24.8 29.0667 24.72 28.88C24.6667 28.6667 24.6 28.4667 24.52 28.28C24.4667 28.2 24.4133 28.1333 24.36 28.08C24.3067 28 24.2533 27.92 24.2 27.84L24.12 27.6C24.0933 27.5467 24.08 27.4667 24.08 27.36C24.0267 27.1733 23.7867 26.9333 23.36 26.64C22.9333 26.3733 22.64 26.24 22.48 26.24ZM48.6078 11.76C48.6878 11.84 48.7278 11.7867 48.7278 11.6C48.7545 11.5467 48.7678 11.48 48.7678 11.4C48.7678 11.2933 48.7811 11.1733 48.8078 11.04C48.8078 10.88 48.8345 10.6933 48.8878 10.48C48.9411 10.2667 49.0478 10.1067 49.2078 10C50.5145 9.22667 51.7545 9.24 52.9278 10.04L56.0078 12.32C56.2478 12.5867 56.4345 13.0533 56.5678 13.72C56.7278 14.3867 56.8211 15.1467 56.8478 16C56.9011 16.8267 56.9011 17.6933 56.8478 18.6C56.7945 19.48 56.7278 20.2667 56.6478 20.96C56.5678 21.1467 56.4078 21.4667 56.1678 21.92C55.9278 22.3467 55.6211 22.68 55.2478 22.92L49.9278 26.08C48.1945 26.56 46.4745 26.48 44.7678 25.84C44.1278 25.84 43.5011 25.64 42.8878 25.24C42.2745 24.84 41.8878 24.3067 41.7278 23.64C41.4078 23.1067 41.2211 22.56 41.1678 22C41.1411 21.4133 41.2078 20.8667 41.3678 20.36L44.3678 13.48C44.4478 13.4 44.5411 13.28 44.6478 13.12C44.7545 12.96 44.8611 12.7867 44.9678 12.6C45.2345 12.3067 45.6078 11.9333 46.0878 11.48L48.6078 11.76ZM65.0078 6.04L66.8478 5.88L69.1678 6.48C69.4078 6.72 69.4611 7.18667 69.3278 7.88L69.4478 8.68L69.4878 12.12L69.6878 19.08L68.8878 20.8L69.3678 23.96L69.6078 29.28L68.4078 30.16L63.2878 30.4L63.3278 28.92L63.6478 28L63.8878 25.6L64.1278 21.6C63.9945 20.4267 63.8878 19.52 63.8078 18.88C63.7545 18.2133 63.7145 17.8133 63.6878 17.68C63.6611 17.4133 63.7278 17 63.8878 16.44V11.32L63.6078 7.92L65.0078 6.04ZM48.0078 17.64L47.8078 17.92C47.7545 18.0267 47.6878 18.1333 47.6078 18.24C47.5278 18.32 47.4478 18.4267 47.3678 18.56C47.2078 18.8 47.0611 19.0533 46.9278 19.32C46.8211 19.5867 46.7811 19.8 46.8078 19.96C46.8078 20.2533 46.8345 20.5067 46.8878 20.72C46.8878 20.9067 47.0611 21.08 47.4078 21.24C47.6745 21.3733 48.0345 21.4267 48.4878 21.4H49.7278C49.8611 21.4267 50.0211 21.44 50.2078 21.44C50.4211 21.4133 50.6878 21.36 51.0078 21.28C51.6478 21.12 52.0345 20.8267 52.1678 20.4C52.2478 20.16 52.2745 19.9333 52.2478 19.72C52.2478 19.48 52.2211 19.28 52.1678 19.12C52.0611 18.9867 52.0078 18.84 52.0078 18.68C51.9545 18.4933 51.9811 18.2933 52.0878 18.08C52.0878 17.44 52.1545 16.9867 52.2878 16.72C52.4211 16.3733 52.5411 16.1467 52.6478 16.04C52.7011 15.96 52.7278 15.7467 52.7278 15.4C52.7278 15.0533 52.6611 14.7867 52.5278 14.6C52.3945 14.44 52.2211 14.32 52.0078 14.24C51.7945 14.16 51.5678 14.1067 51.3278 14.08C51.0878 14.0533 50.8611 14.0533 50.6478 14.08C50.4611 14.08 50.3278 14.12 50.2478 14.2L48.0078 17.64ZM101.805 23.16C101.725 23.56 101.698 23.8533 101.725 24.04C101.751 24.28 101.818 24.5067 101.925 24.72C102.058 24.9333 102.285 25.08 102.605 25.16C102.951 25 103.391 24.88 103.925 24.8C104.485 24.6933 105.045 24.6533 105.605 24.68C106.165 24.68 106.671 24.7333 107.125 24.84C107.605 24.9467 107.938 25.0933 108.125 25.28L109.245 26.96C109.298 27.3333 109.298 27.76 109.245 28.24C109.191 28.6933 109.125 29.1333 109.045 29.56C108.991 30.0133 108.938 30.4267 108.885 30.8C108.831 31.1467 108.831 31.4 108.885 31.56C108.645 31.7467 108.458 31.92 108.325 32.08C108.191 32.2667 108.031 32.4533 107.845 32.64C107.658 32.8533 107.418 33.08 107.125 33.32C106.858 33.5867 106.458 33.8933 105.925 34.24L98.0047 36.4C97.6047 36.4 97.1647 36.32 96.6847 36.16C96.2047 36.0533 95.6447 35.8933 95.0047 35.68C94.658 35.5733 94.3514 35.44 94.0847 35.28C93.8447 35.1467 93.618 34.9867 93.4047 34.8C93.1914 34.6133 92.978 34.4267 92.7647 34.24C92.578 34.0533 92.378 33.8667 92.1647 33.68C91.9247 33.52 91.738 33.3733 91.6047 33.24C91.498 33.1333 91.4314 33 91.4047 32.84C91.3514 32.7067 91.3247 32.5333 91.3247 32.32C91.3247 32.1333 91.338 31.8667 91.3647 31.52C91.3647 30.8533 91.4314 30.3333 91.5647 29.96C91.7247 29.5867 92.0447 29.1733 92.5247 28.72C92.8447 28.96 93.178 28.9867 93.5247 28.8C93.898 28.6133 94.1114 28.36 94.1647 28.04L94.4447 26.92C94.658 26.7333 94.8047 26.5467 94.8847 26.36C94.9914 26.1733 95.058 26 95.0847 25.84C95.1114 25.68 95.138 25.5333 95.1647 25.4C95.1914 25.2667 95.2714 25.1467 95.4047 25.04C95.7247 24.7733 96.018 24.48 96.2847 24.16C96.578 23.84 96.818 23.6267 97.0047 23.52C97.1914 23.4133 97.4047 23.3067 97.6447 23.2C97.9114 23.0667 98.138 22.9733 98.3247 22.92C98.538 22.8667 98.738 22.8533 98.9247 22.88C99.1114 22.88 99.3514 22.88 99.6447 22.88L101.805 23.16ZM86.4447 12.76C86.258 12.84 86.058 13.04 85.8447 13.36C85.658 13.68 85.4847 14.0267 85.3247 14.4L90.7247 19.28C90.9114 19.7067 91.0847 20.2267 91.2447 20.84C91.4047 21.4267 91.538 22.04 91.6447 22.68C91.7514 23.32 91.818 23.96 91.8447 24.6C91.8714 25.24 91.8714 25.8 91.8447 26.28L89.2447 27.52C88.5247 27.4133 88.0447 27.3333 87.8047 27.28C87.5647 27.2 87.3247 27.0667 87.0847 26.88C87.0314 26.88 86.9914 26.8667 86.9647 26.84C86.938 26.7867 86.898 26.6667 86.8447 26.48C86.738 26.1867 86.5914 25.4 86.4047 24.12L85.4847 22.4L84.1647 20.08L83.9647 18.24C84.3114 18.0533 84.5514 17.7467 84.6847 17.32C84.7114 17.1333 84.6447 16.96 84.4847 16.8C84.3514 16.6133 84.0714 16.48 83.6447 16.4C83.1114 16.5067 82.5914 16.84 82.0847 17.4C81.578 17.96 81.098 18.56 80.6447 19.2C80.218 19.84 79.8314 20.44 79.4847 21C79.1647 21.5333 78.9247 21.84 78.7647 21.92C78.5514 21.9467 78.3514 21.96 78.1647 21.96C77.978 21.96 77.8047 21.9733 77.6447 22L76.6847 22.16C76.178 21.84 75.858 21.48 75.7247 21.08L75.0447 19.52C75.0447 19.36 75.098 19.1067 75.2047 18.76C75.338 18.4133 75.498 18.04 75.6847 17.64C75.8714 17.2667 76.0714 16.8933 76.2847 16.52C76.5247 16.1467 76.7514 15.84 76.9647 15.6C77.0714 15.4933 77.218 15.36 77.4047 15.2C77.618 15.04 77.818 14.88 78.0047 14.72C78.458 14.3733 78.778 14.0267 78.9647 13.68C79.0447 13.36 79.218 12.9867 79.4847 12.56C79.778 12.1067 80.1247 11.6267 80.5247 11.12C80.9247 10.6133 81.3647 10.0933 81.8447 9.56C82.3247 9 82.8047 8.44 83.2847 7.88L84.0447 7.36L84.2047 6.88L84.6447 6.72L84.6047 6.48L86.5247 5.32C86.818 5.29333 87.138 5.29333 87.4847 5.32C87.8314 5.32 88.2314 5.33333 88.6847 5.36C89.138 5.38667 89.538 5.41333 89.8847 5.44C90.2314 5.44 90.5247 5.46666 90.7647 5.52C90.9514 5.57333 91.1114 5.73333 91.2447 6C91.3514 6.26667 90.938 7.06667 90.0047 8.4L88.3247 11.68C87.4714 12.2133 86.8447 12.5733 86.4447 12.76ZM102.485 17.2L102.245 16.4L101.245 15.28L95.7647 16.44L92.6847 15.84L91.1647 13.4L92.7247 12.24L96.7247 11.64L98.9647 11.24L101.845 9.4L101.285 6.44L102.205 3.6L104.285 2.96L106.845 3L108.125 3.84L108.165 12.6C107.578 12.8133 107.285 13.1867 107.285 13.72L107.885 15.52L107.325 20.2L106.125 22.16L103.805 22.2L102.845 21.48L102.605 19.56L102.485 17.2ZM102.165 27.56C102.165 27.3467 102.165 27.2133 102.165 27.16C102.191 27.1067 102.165 27.0933 102.085 27.12C102.005 27.1467 101.831 27.2133 101.565 27.32C101.325 27.4267 100.925 27.52 100.365 27.6L97.4447 30.76C97.3914 30.92 97.418 31.12 97.5247 31.36C97.6314 31.6267 97.8047 31.84 98.0447 32C98.098 32.24 98.258 32.4267 98.5247 32.56C98.7914 32.6933 99.098 32.7733 99.4447 32.8L103.445 31.68C103.605 31.5733 103.791 31.4 104.005 31.16C104.245 30.92 104.391 30.6933 104.445 30.48C104.471 30.2933 104.445 30.1067 104.365 29.92C104.311 29.7333 104.231 29.5467 104.125 29.36C104.018 29.2 103.911 29.04 103.805 28.88C103.725 28.72 103.685 28.5733 103.685 28.44C103.685 28.3333 103.618 28.2267 103.485 28.12C103.351 28.0133 103.205 27.92 103.045 27.84C102.885 27.76 102.711 27.6933 102.525 27.64C102.365 27.5867 102.245 27.56 102.165 27.56Z" fill="#FEAE97"/>
</svg>
